# xmcd CD database file
#
# Track frame offsets:
#	150
#	21035
#	38047
#	58975
#
# Disc length: 1011 seconds
#
# Revision: 0
# Processed by: cddbd v1.5.1PL0 Copyright (c) Steve Scherf et al.
# Submitted via: CDex 1.51
#
DISCID=2d03f104
DTITLE=Nokko - 水の中の小さな太陽
DYEAR=1997
DGENRE=Pop
TTITLE0=水の中の小さな太陽
TTITLE1=昼下がりのイヴ
TTITLE2=水の中の小さな太陽（オリジナル・カラオケ）
TTITLE3=昼下がりのイヴ（オリジナル・カラオケ）
EXTD=YEAR: 1997
EXTT0=
EXTT1=
EXTT2=
EXTT3=
PLAYORDER=
